<svg width="27" height="27" fill="none" xmlns="http://www.w3.org/2000/svg"><path fill-rule="evenodd" clip-rule="evenodd" d="M.583 13.5C.583 6.37 6.37.583 13.5.583S26.417 6.37 26.417 13.5 20.63 26.417 13.5 26.417.583 20.63.583 13.5zm2.584 0c0 5.696 4.637 10.333 10.333 10.333 5.696 0 10.333-4.637 10.333-10.333 0-5.696-4.637-10.333-10.333-10.333-5.696 0-10.333 4.637-10.333 10.333zm3.229 7.104 9.7-4.508 4.508-9.7-9.7 4.508-4.508 9.7zM14.92 13.5c0-.788-.633-1.42-1.421-1.42s-1.42.632-1.42 1.42c0 .788.632 1.42 1.42 1.42.788 0 1.42-.632 1.42-1.42z" fill="#222"/></svg>