<svg width="21" height="23" fill="none" xmlns="http://www.w3.org/2000/svg"><path fill-rule="evenodd" clip-rule="evenodd" d="m5.08 17.233-.01-6.937c.075-1.043.512-1.493 1.31-1.348.492.25.737.808.733 1.676l.27 3.815c.165.549.588.555 1.271.02l6.36-6.976c1-.615 1.637-.01 1.329.887l-3.931 4.894c-.092.42.108.534.597.347 3.314-2.917 4.972-4.374 4.972-4.374 1.004-.45 1.55.282.925 1.214l-4.432 4.374c-.2.485-.014.71.559.674l4.431-3.122c.397-.043.667.028.81.212.25.336.256.644.019.925l-4.374 3.45c-.272.467-.144.702.385.703l3.43-1.831c.41-.107.66-.024.751.25.08.318-.062.607-.423.868-4.67 3.298-7.59 5.126-8.758 5.482-2.293.394-4.11-.255-5.453-1.946-.432-.953-.689-2.038-.771-3.257zM.263 10.874c1.462 1.457 2.817 2.703 4.066 3.739v-3.45L.938 9.276c-.957-.05-1.181.483-.675 1.6z" fill="#36C"/><path fill-rule="evenodd" clip-rule="evenodd" d="M6.242 8.186c-.977-.039-1.195.347-1.195.347s.001-2.251.014-6.503c.36-1.2 1.741-.908 1.87.115l.635 5.78c.445.278.722.22.83-.174L8.318.74c.364-1.164 1.753-.866 2.023.289l.039 7.129c.258.124.509.073.75-.154l.772-5.569c.538-.98 1.37-.456 1.56.309l-.481 5.723-4.027 4.296c-.416.492-.744.166-.79-.057-.13-2.171-.352-3.382-.352-3.382-.233-.701-.828-1.183-1.57-1.137z" fill="#36C"/></svg>