<svg width="32" height="35" fill="none" xmlns="http://www.w3.org/2000/svg"><path fill-rule="evenodd" clip-rule="evenodd" d="m7.784 26.404-.015-10.628c.114-1.599.784-2.288 2.008-2.067.753.383 1.127 1.24 1.122 2.569l.413 5.846c.253.84.902.85 1.948.029l9.743-10.688c1.533-.941 2.509-.015 2.038 1.359l-6.023 7.499c-.14.642.165.819.915.531l7.617-6.702c1.539-.688 2.377.433 1.417 1.86a68905.1 68905.1 0 0 0-6.79 6.702c-.306.743-.02 1.088.856 1.034l6.79-4.784c.608-.066 1.022.043 1.24.325.384.514.394.987.03 1.418L24.39 25.99c-.417.717-.22 1.076.59 1.078l5.256-2.805c.627-.164 1.011-.036 1.151.384.12.486-.096.928-.65 1.328-7.155 5.054-11.628 7.855-13.418 8.4-3.513.605-6.298-.39-8.356-2.982-.66-1.46-1.054-3.122-1.18-4.99zM.403 16.662c2.24 2.231 4.317 4.14 6.23 5.728v-5.285L1.436 14.21c-1.465-.076-1.809.74-1.033 2.451z" fill="#fff"/><path fill-rule="evenodd" clip-rule="evenodd" d="M9.563 12.543c-1.496-.06-1.83.531-1.83.531s.002-3.449.022-9.964c.551-1.838 2.668-1.391 2.864.177.65 5.905.973 8.857.973 8.857.682.425 1.106.335 1.273-.267l-.12-10.745c.557-1.783 2.686-1.327 3.099.442l.06 10.924c.396.19.78.113 1.15-.236l1.182-8.532c.825-1.503 2.1-.7 2.391.472l-.738 8.769-6.17 6.584c-.637.752-1.139.253-1.211-.088-.197-3.327-.538-5.182-.538-5.182-.358-1.075-1.269-1.813-2.407-1.742z" fill="#fff"/></svg>