<svg width="17" height="17" fill="none" xmlns="http://www.w3.org/2000/svg"><path fill-rule="evenodd" clip-rule="evenodd" d="M0 8.5C0 3.808 3.808 0 8.5 0S17 3.808 17 8.5 13.192 17 8.5 17A8.503 8.503 0 0 1 0 8.5zm9.35 3.4v1.7h-1.7v-1.7h1.7zm-.85 3.4a6.809 6.809 0 0 1-6.8-6.8c0-3.748 3.051-6.8 6.8-6.8 3.748 0 6.8 3.051 6.8 6.8 0 3.748-3.052 6.8-6.8 6.8zM5.1 6.8a3.4 3.4 0 0 1 3.4-3.4 3.4 3.4 0 0 1 3.4 3.4c0 1.09-.671 1.677-1.325 2.249-.62.542-1.225 1.07-1.225 2.001h-1.7c0-1.548.8-2.162 1.505-2.702.552-.423 1.045-.8 1.045-1.548 0-.935-.765-1.7-1.7-1.7-.935 0-1.7.765-1.7 1.7H5.1z" fill="#000" fill-opacity=".25"/></svg>