<svg width="35" height="35" fill="none" xmlns="http://www.w3.org/2000/svg"><path fill-rule="evenodd" clip-rule="evenodd" d="M29.167 7.292H5.833a2.913 2.913 0 0 0-2.902 2.916l-.014 14.584a2.925 2.925 0 0 0 2.916 2.916h23.334a2.925 2.925 0 0 0 2.916-2.916V10.208a2.925 2.925 0 0 0-2.916-2.916zm0 2.916v14.584H5.833V10.208h23.334zm-10.209 1.459h-2.916v2.916h2.916v-2.916zm-2.916 4.375h2.916v2.916h-2.916v-2.916zm-1.459-4.375h-2.916v2.916h2.916v-2.916zm-2.916 4.375h2.916v2.916h-2.916v-2.916zm-1.459 0H7.292v2.916h2.916v-2.916zm-2.916-4.375h2.916v2.916H7.292v-2.916zm16.041 8.75H11.667v2.916h11.666v-2.916zm-2.916-4.375h2.916v2.916h-2.916v-2.916zm2.916-4.375h-2.916v2.916h2.916v-2.916zm1.459 4.375h2.916v2.916h-2.916v-2.916zm2.916-4.375h-2.916v2.916h2.916v-2.916z" fill="#000" fill-opacity=".2"/></svg>