<?xml version="1.0" encoding="UTF-8" standalone="no"?>
<svg
   xmlns:dc="http://purl.org/dc/elements/1.1/"
   xmlns:cc="http://creativecommons.org/ns#"
   xmlns:rdf="http://www.w3.org/1999/02/22-rdf-syntax-ns#"
   xmlns:svg="http://www.w3.org/2000/svg"
   xmlns="http://www.w3.org/2000/svg"
   xmlns:sodipodi="http://sodipodi.sourceforge.net/DTD/sodipodi-0.dtd"
   xmlns:inkscape="http://www.inkscape.org/namespaces/inkscape"
   inkscape:version="1.0 (4035a4fb49, 2020-05-01)"
   sodipodi:docname="lingualibre-logo.svg"
   viewBox="0 0 182.04086 130.42938"
   height="130.42938"
   width="182.04086"
   id="svg974"
   version="1.1">
  <metadata
     id="metadata980">
    <rdf:RDF>
      <cc:Work
         rdf:about="">
        <dc:format>image/svg+xml</dc:format>
        <dc:type
           rdf:resource="http://purl.org/dc/dcmitype/StillImage" />
        <dc:title></dc:title>
      </cc:Work>
    </rdf:RDF>
  </metadata>
  <defs
     id="defs978" />
  <sodipodi:namedview
     inkscape:document-rotation="0"
     fit-margin-bottom="0"
     fit-margin-right="0"
     fit-margin-left="0"
     fit-margin-top="0"
     inkscape:current-layer="svg974"
     inkscape:window-maximized="1"
     inkscape:window-y="0"
     inkscape:window-x="1680"
     inkscape:cy="80.254549"
     inkscape:cx="33.691002"
     inkscape:zoom="1.9805537"
     showgrid="false"
     id="namedview976"
     inkscape:window-height="1009"
     inkscape:window-width="1920"
     inkscape:pageshadow="2"
     inkscape:pageopacity="0"
     guidetolerance="10"
     gridtolerance="10"
     objecttolerance="10"
     borderopacity="1"
     bordercolor="#666666"
     pagecolor="#ffffff" />
  <g
     transform="translate(-22.646195,-1.9822329)"
     id="g984">
    <path
       sodipodi:nodetypes="cssssssssssssssscscscsssscscsssssscssscccssssscscccsssscccccssscscssscssscccccccccccccccc"
       inkscape:connector-curvature="0"
       id="path988"
       d="M 90.032425,97.579385 C 87.054396,92.956678 83.779072,88.71415 83.2144,81.295302 82.651181,73.89552 81.034714,68.741824 76.991654,61.455599 71.158394,50.943158 61.978712,40.80089 50.88,32.605865 47.36,30.00678 41.859752,25.351199 38.657228,22.260128 35.454702,19.169058 32.646702,16.64 32.417228,16.64 c -1.48416,0 2.939443,9.139548 7.552574,15.604271 3.584273,5.022908 10.732883,11.85331 14.866366,14.204616 C 58.589901,48.584174 59.52,49.656859 59.52,51.850762 59.52,53.750225 57.155828,56.32 55.408337,56.32 53.080641,56.32 36.833757,46.579711 34.528713,43.802301 33.506086,42.570111 32.64,42.635074 32.64,43.94397 c 0,3.657936 8.741039,12.648827 17.502532,18.00282 C 55.385416,65.150624 58.24,67.792192 58.24,69.44 c 0,0.433062 -0.596903,1.546221 -1.326451,2.47369 C 54.882873,74.495277 52.415761,74.133971 46.4,70.373984 43.584,68.61392 40.630783,66.844966 39.837295,66.44297 c -2.702924,-1.369338 -2.326805,0.139705 0.84129,3.375379 4.993393,5.099917 14.498325,10.88103 19.551482,11.891667 3.829671,0.765933 5.083066,5.484173 2.083623,7.843533 -2.090416,1.64432 -2.449083,1.643488 -6.708344,-0.01555 C 43.989513,85.01335 34.269223,77.797997 28.843204,69.672467 26.653565,66.393459 26.24,65.258483 26.24,62.528319 c 0,-2.474373 0.338439,-3.606074 1.423963,-4.761561 1.370959,-1.459319 1.383288,-1.579966 0.331201,-3.241248 -3.096019,-4.888723 -4.302792,-8.203926 -4.308912,-11.837292 -0.0072,-4.263753 1.097528,-6.819858 3.769818,-8.722696 L 29.331455,32.630131 26.56173,27.035066 C 25.038381,23.957779 23.452274,19.754564 23.037048,17.694586 20.633148,5.7686075 29.861324,-3.13427 35.871361,5.3126897 42.01796,13.951583 47.417171,19.295233 56.369613,25.6 61.55721,29.25337 74.990829,42.548231 79.003398,48 c 1.683994,2.288 4.9938,6.558319 5.349512,6.558319 0.355706,0 2.793515,-4.36912 3.604772,-6.777877 2.785229,-8.269776 5.740395,-12.084359 13.700568,-15.946801 4.96592,-2.409568 4.49523,-3.707589 11.71982,-3.724168 6.71532,-0.01541 7.16892,1.313538 11.5352,3.06167 8.19414,3.280688 15.83936,9.356952 18.14043,18.076383 0.4133,1.566139 -0.35427,3.825376 -0.009,3.94058 0.34561,0.115205 4.18762,-3.489773 6.84072,-6.931117 5.89887,-7.651401 12.59666,-14.091797 22.28105,-21.424803 8.54685,-6.471662 14.10703,-11.94968 18.05904,-17.792186 2.23982,-3.3112694 3.27346,-4.2755899 5.0663,-4.7265563 6.05915,-1.52409884 10.46768,5.5621543 9.16643,14.7340623 -0.24287,1.711872 -1.7428,5.90762 -3.33319,9.323887 l -2.89161,6.211392 2.02652,1.705201 c 2.73331,2.299925 4.06759,5.636178 3.73102,9.329051 -0.25963,2.848596 -2.7914,8.66042 -4.73443,10.868146 -0.80954,0.919826 -0.72419,1.333534 0.71162,3.44931 0.89731,1.32227 1.63148,3.231076 1.63148,4.241792 0,6.760182 -12.67354,19.737577 -24.60542,25.195331 -4.53509,2.074394 -8.51783,3.508384 -9.74414,3.508384 -1.4452,0 -4.05044,-2.996877 -4.05044,-4.659347 0,-1.87337 2.24234,-4.052992 4.8,-4.665767 5.59886,-1.341388 16.38924,-8.313913 20.08228,-12.976761 1.77277,-2.238291 1.91989,-2.657805 0.9315,-2.65609 -0.64558,0.0013 -2.90178,1.168551 -5.01378,2.594285 -2.112,1.425741 -4.90852,3.152819 -6.2145,3.837965 -4.57593,2.400627 -8.1855,1.046445 -8.1855,-3.070899 0,-2.214759 1.94298,-3.997818 8.58122,-7.874935 6.59797,-3.853597 16.37878,-13.805876 16.37878,-16.665922 0,-1.742331 -0.70394,-1.541079 -4.2364,1.21116 -3.88197,3.024562 -10.42628,7.060778 -14.62996,9.023063 -3.78421,1.76648 -5.94131,1.332751 -7.28184,-1.464169 -1.27586,-2.662013 -0.24616,-4.288716 4.82871,-7.628271 7.74145,-5.094313 14.26279,-12.436175 19.26889,-21.69333 C 194.47776,20.551142 196.06653,16 195.36882,16 c -0.2024,0 -2.41119,2.09498 -4.90841,4.655512 -2.49723,2.560531 -7.13241,6.656202 -10.30041,9.10149 -17.12142,13.215534 -24.62278,21.448696 -30.90773,33.922998 -3.49137,6.929619 -4.61251,10.945632 -5.27067,18.88 -0.64191,7.738413 -1.93647,11.67671 -5.62248,17.104582 -21.19631,12.229338 -35.87946,16.782668 -48.326695,-2.085197 z M 108.77563,34.460363 c -2.19148,0 -9.340638,3.061939 -12.143427,5.992348 -3.093485,3.23435 -6.643783,9.611102 -6.361051,11.596424 1.328561,22.808822 1.546199,37.197871 1.907575,41.091737 0.555333,5.090209 12.614203,9.970428 16.378743,11.691298 5.28632,-6.760219 2.04735,-70.30309 0.21816,-70.371807 z m 27.89646,53.118908 c 0.21996,-12.292557 0.78964,-7.607169 0.21996,-12.292557 0.47051,-13.768111 1.72716,-3.300036 0.48759,-10.908032 -0.25865,-9.476254 -5.55819,-6.601766 1.43263,-10.981104 0.60073,-1.565498 -5.04588,-10.365462 -8.06146,-13.381044 -2.8999,-2.899896 -8.1313,-6.145443 -10.34722,-6.173252 -13.61128,-0.03941 -9.39965,41.589762 -2.45347,71.554088 5.76921,-3.21224 18.3378,-10.784788 18.72197,-17.818099 z"
       style="fill:#3366cc;fill-opacity:1;stroke-width:0.64" />
    <path
       sodipodi:nodetypes="ssscsssssssccsssscsscccscccscsssscscsscsssssccscsccscc"
       inkscape:connector-curvature="0"
       id="path986"
       d="m 111.68,131.72615 c -0.704,-0.39321 -1.424,-0.83931 -1.6,-0.99135 -0.176,-0.15204 -0.464,-4.3206 -0.64,-9.26348 l -0.32,-8.98705 -4.8,-1.69629 C 94.736115,107.40109 88.468832,101.1273 85.019021,91.466931 83.659322,87.659411 83.536096,86.133037 83.328819,70.530003 83.107091,53.839179 83.119117,53.656425 84.78329,48.430089 88.723994,36.054288 98.89223,27.9721 111.64514,27.079048 c 14.32746,-1.003315 26.91735,7.728675 31.1273,21.58902 1.22555,4.034861 1.30176,5.600802 1.07822,22.156822 -0.27515,20.378137 -0.40079,21.004544 -5.78759,28.855897 -4.26843,6.221323 -8.45008,9.023663 -18.86307,12.641123 -0.58505,0.20324 -0.8,2.52664 -0.8,8.64709 0,8.03247 -0.0632,8.43238 -1.57091,9.94009 -1.70369,1.70369 -3.1506,1.93329 -5.14909,0.81706 z m -2.24,-61.928377 c 0,-22.580197 -0.21608,-33.37578 -0.67372,-33.658611 -1.11474,-0.688948 -7.64775,2.900889 -10.35389,5.68938 C 95.493837,44.835913 92.8,49.784595 92.8,52.138724 c 0,1.506112 0.215942,1.621972 3.04,1.631076 1.672,0.0054 3.385651,0.22952 3.808122,0.498067 1.324598,0.842003 1.980718,3.51738 1.324368,5.400198 -0.60391,1.732377 -2.526992,2.616664 -6.89249,3.169364 -2.503219,0.316924 -2.011315,2.088971 0.64,2.30556 4.976339,0.406528 7.58423,2.997152 6.35693,6.314835 -0.69635,1.882426 -1.676117,2.385434 -5.39693,2.770778 -2.662867,0.275769 -3.2,0.546252 -3.2,1.611398 0,0.956557 0.485165,1.324346 1.92,1.455494 4.975398,0.454759 6.72,1.667213 6.72,4.670221 0,2.69833 -2.012262,4.434285 -5.140083,4.434285 -3.311175,0 -3.794355,1.180301 -1.997351,4.879072 C 96.711296,96.895616 103.9166,102.9257 108,103.0102 l 1.44,0.0298 z m 13.95395,31.706097 c 1.66727,-0.84486 4.41406,-3.014302 6.10399,-4.820971 3.13329,-3.349741 5.92276,-8.509139 5.2175,-9.650278 -0.21504,-0.347943 -1.59799,-0.637031 -3.07321,-0.642419 -3.0443,-0.01114 -3.78634,-0.372135 -4.82642,-2.348128 -1.81763,-3.453216 0.2278,-6.087226 5.1074,-6.577069 2.89512,-0.290631 3.43679,-0.546746 3.43679,-1.625005 0,-1.096077 -0.53752,-1.327789 -3.74077,-1.612563 -4.00379,-0.355943 -5.53923,-1.51984 -5.53923,-4.198861 0,-2.630739 2.10582,-4.347936 5.79255,-4.723571 1.86761,-0.190285 3.50447,-0.703616 3.65002,-1.144666 0.30894,-0.936257 -0.36992,-1.201114 -4.4947,-1.753597 -3.5208,-0.471584 -5.35567,-2.454828 -4.69746,-5.077326 0.63879,-2.545147 2.14686,-3.569416 5.25539,-3.569416 1.91205,0 2.97275,-0.308472 3.21293,-0.934385 0.54255,-1.413864 -2.49574,-7.508779 -5.28524,-10.602366 -2.39785,-2.659258 -9.48185,-6.676112 -10.5785,-5.998349 -0.62929,0.388921 -0.73595,65.7608 -0.10832,66.38843 0.68244,0.68245 1.3522,0.51975 4.56728,-1.10946 z"
       style="fill:#474847;stroke-width:0.64" />
  </g>
</svg>
