<svg xmlns="http://www.w3.org/2000/svg" height="130.429" width="182.041"><path d="M90.032 97.58c-2.978-4.623-6.253-8.866-6.818-16.285-.563-7.4-2.18-12.553-6.222-19.84-5.834-10.512-15.013-20.654-26.112-28.85-3.52-2.598-9.02-7.254-12.223-10.345-3.202-3.09-6.01-5.62-6.24-5.62-1.484 0 2.94 9.14 7.553 15.604 3.584 5.023 10.733 11.854 14.866 14.205 3.754 2.135 4.684 3.208 4.684 5.402 0 1.9-2.364 4.469-4.112 4.469-2.327 0-18.574-9.74-20.88-12.518-1.022-1.232-1.888-1.167-1.888.142 0 3.658 8.741 12.649 17.503 18.003 5.242 3.204 8.097 5.845 8.097 7.493 0 .433-.597 1.546-1.326 2.474-2.031 2.581-4.498 2.22-10.514-1.54-2.816-1.76-5.77-3.529-6.563-3.931-2.703-1.37-2.327.14.842 3.375 4.993 5.1 14.498 10.881 19.551 11.892 3.83.766 5.083 5.484 2.084 7.844-2.09 1.644-2.45 1.643-6.709-.016-11.615-4.525-21.336-11.74-26.762-19.866-2.19-3.279-2.603-4.414-2.603-7.144 0-2.474.338-3.606 1.424-4.761 1.37-1.46 1.383-1.58.331-3.241-3.096-4.89-4.303-8.204-4.309-11.838-.007-4.264 1.098-6.82 3.77-8.722l1.875-1.336-2.77-5.595c-1.523-3.077-3.109-7.28-3.524-9.34-2.404-11.926 6.824-20.83 12.834-12.382C42.018 13.952 47.417 19.295 56.37 25.6c5.187 3.653 18.62 16.948 22.633 22.4 1.684 2.288 4.994 6.558 5.35 6.558.356 0 2.793-4.369 3.605-6.778 2.785-8.27 5.74-12.084 13.7-15.946 4.966-2.41 4.495-3.708 11.72-3.725 6.715-.015 7.169 1.314 11.535 3.062 8.194 3.28 15.84 9.357 18.14 18.077.414 1.566-.354 3.825-.008 3.94.345.115 4.187-3.49 6.84-6.931 5.9-7.651 12.597-14.092 22.281-21.425 8.547-6.471 14.108-11.95 18.06-17.792 2.24-3.311 3.273-4.276 5.066-4.727 6.059-1.524 10.467 5.563 9.166 14.735-.243 1.711-1.743 5.907-3.333 9.323l-2.892 6.212 2.027 1.705c2.733 2.3 4.068 5.636 3.731 9.329-.26 2.849-2.791 8.66-4.734 10.868-.81.92-.725 1.334.711 3.45.897 1.322 1.632 3.23 1.632 4.241 0 6.76-12.674 19.738-24.606 25.196-4.535 2.074-8.518 3.508-9.744 3.508-1.445 0-4.05-2.997-4.05-4.66 0-1.873 2.242-4.052 4.8-4.665 5.599-1.342 16.389-8.314 20.082-12.977 1.773-2.238 1.92-2.658.931-2.656-.645.001-2.901 1.169-5.013 2.594-2.112 1.426-4.909 3.153-6.215 3.838-4.576 2.4-8.185 1.047-8.185-3.07 0-2.215 1.943-3.998 8.58-7.876 6.599-3.853 16.38-13.805 16.38-16.665 0-1.743-.704-1.542-4.237 1.21-3.882 3.025-10.426 7.061-14.63 9.024-3.784 1.766-5.941 1.333-7.282-1.464-1.275-2.662-.246-4.29 4.83-7.629 7.74-5.094 14.262-12.436 19.268-21.693 1.969-3.64 3.558-8.191 2.86-8.191-.203 0-2.411 2.095-4.909 4.656-2.497 2.56-7.132 6.656-10.3 9.101-17.121 13.216-24.623 21.449-30.908 33.923-3.491 6.93-4.612 10.946-5.27 18.88-.642 7.738-1.937 11.677-5.623 17.105-21.196 12.229-35.88 16.782-48.327-2.086zm18.744-63.12c-2.192 0-9.341 3.062-12.144 5.993-3.093 3.234-6.644 9.61-6.36 11.596 1.328 22.809 1.545 37.198 1.907 41.092.555 5.09 12.614 9.97 16.378 11.691 5.287-6.76 2.048-70.303.219-70.372zm27.896 53.12c.22-12.293.79-7.608.22-12.293.47-13.768 1.727-3.3.488-10.908-.259-9.477-5.559-6.602 1.432-10.981.601-1.566-5.046-10.366-8.061-13.381-2.9-2.9-8.131-6.146-10.347-6.174-13.612-.04-9.4 41.59-2.454 71.554 5.77-3.212 18.338-10.784 18.722-17.818z" style="fill:#36c;fill-opacity:1;stroke-width:.64" transform="translate(-22.646 -1.982)"/><path d="M111.68 131.726c-.704-.393-1.424-.84-1.6-.991-.176-.152-.464-4.32-.64-9.264l-.32-8.987-4.8-1.696c-9.584-3.387-15.851-9.66-19.301-19.321-1.36-3.808-1.483-5.334-1.69-20.937-.222-16.69-.21-16.874 1.454-22.1 3.941-12.376 14.11-20.458 26.862-21.351 14.328-1.003 26.917 7.729 31.127 21.59 1.226 4.034 1.302 5.6 1.079 22.156-.275 20.378-.401 21.004-5.788 28.856-4.268 6.221-8.45 9.023-18.863 12.64-.585.204-.8 2.528-.8 8.648 0 8.032-.063 8.432-1.57 9.94-1.705 1.704-3.152 1.933-5.15.817zm-2.24-61.928c0-22.58-.216-33.376-.674-33.659-1.114-.689-7.647 2.901-10.354 5.69-2.918 3.007-5.612 7.956-5.612 10.31 0 1.506.216 1.622 3.04 1.63 1.672.006 3.386.23 3.808.499 1.325.842 1.98 3.517 1.324 5.4-.603 1.732-2.527 2.617-6.892 3.17-2.503.316-2.011 2.088.64 2.305 4.976.407 7.584 2.997 6.357 6.315-.696 1.882-1.676 2.385-5.397 2.77-2.663.276-3.2.547-3.2 1.612 0 .957.485 1.324 1.92 1.455 4.975.455 6.72 1.668 6.72 4.67 0 2.699-2.012 4.435-5.14 4.435-3.311 0-3.794 1.18-1.997 4.88 2.728 5.616 9.934 11.646 14.017 11.73l1.44.03zm13.954 31.706c1.667-.845 4.414-3.014 6.104-4.821 3.133-3.35 5.923-8.51 5.217-9.65-.215-.348-1.598-.637-3.073-.643-3.044-.01-3.786-.372-4.826-2.348-1.818-3.453.228-6.087 5.107-6.577 2.895-.29 3.437-.547 3.437-1.625 0-1.096-.538-1.328-3.74-1.613-4.005-.356-5.54-1.52-5.54-4.198 0-2.631 2.106-4.348 5.793-4.724 1.867-.19 3.504-.704 3.65-1.145.309-.936-.37-1.2-4.495-1.753-3.52-.472-5.356-2.455-4.698-5.078.64-2.545 2.147-3.569 5.256-3.569 1.912 0 2.973-.308 3.213-.934.542-1.414-2.496-7.51-5.286-10.603-2.397-2.659-9.481-6.676-10.578-5.998-.63.389-.736 65.76-.108 66.388.682.683 1.352.52 4.567-1.11z" style="fill:#474847;stroke-width:.64" transform="translate(-22.646 -1.982)"/></svg>