<svg width="32" height="29" viewBox="0 0 32 29" fill="none" xmlns="http://www.w3.org/2000/svg">
<path d="M30.2585 7.79951C29.8709 7.1955 28.5735 9.27698 29.5181 9.27698C30.4405 10.7144 30.539 12.281 30.2585 14.3198C29.9437 16.6077 29.2385 18.2067 27.9946 18.9822C25.3821 20.6108 22.8919 20.8029 20.1396 21.021C17.4089 21.2375 14.6715 21.2383 11.9392 21.111C11.3654 21.0844 10.7387 20.9149 10.1665 21.0039C9.59906 21.0922 8.97195 22.2728 8.52965 22.8119C7.90088 23.5786 7.26747 24.3353 6.62215 25.0616C6.32229 25.399 6.02024 25.7319 5.71113 26.0449C5.6387 26.1181 5.55211 26.186 5.46334 26.2551C5.55655 25.6793 5.64806 25.1027 5.73881 24.5258C5.91155 23.4277 6.08227 22.329 6.25133 21.2294C6.29234 20.9624 6.22804 20.5663 6.06296 20.4458C5.26537 19.864 4.5021 19.096 3.79027 18.2593C2.60087 16.8611 1.44334 14.9279 1.14264 12.398C0.859149 10.0135 1.98909 7.41058 2.28527 5.39784C2.89749 4.23411 3.235 2.80954 3.79027 1.71272C4.13186 1.03801 3.2415 0.0983413 2.89749 0.777759C1.37843 3.77813 -0.351758 8.26721 0.0622661 12.398C0.337899 15.1478 1.73022 17.3909 2.98717 18.9822C3.72692 19.9186 4.53026 20.769 5.37215 21.4317C5.2386 22.2971 5.10465 23.1624 4.96883 24.0268C4.85928 24.7241 4.74941 25.4211 4.63616 26.1165C4.56953 26.5261 4.4096 27.0668 4.48072 27.5006C4.75956 29.201 6.6197 26.7265 6.98442 26.3176C8.0399 25.1344 9.21332 23.9443 10.1569 22.5071C10.1919 22.4539 10.2176 22.4215 10.239 22.3966C10.2558 22.3974 10.2727 22.3971 10.2893 22.401C10.5866 22.4713 10.9047 22.4435 11.2043 22.4607C13.9908 22.6201 16.7833 22.6384 19.5693 22.4504C22.5791 22.2474 25.8806 22.0852 28.7342 20.2759C30.2498 19.315 31.1749 17.6336 31.5204 14.8378C31.8247 12.3746 31.3721 9.53479 30.2585 7.79951ZM4.94904 26.7097L4.95729 26.7267C4.95079 26.7231 4.94789 26.716 4.94904 26.7097ZM10.2573 22.3756C10.3025 22.3539 10.3041 22.3275 10.2573 22.3756V22.3756Z" fill="#1B1D1E"/>
<path d="M8.37248 0.0948334C6.73852 -1.08732 0.963455 9.07463 5.15944 14.3134C9.35536 19.5521 21.7895 20.074 21.9051 18.9959C22.0207 17.9179 16.4516 17.4516 16.5825 17.1677C16.7134 16.8837 24.3461 17.1305 24.4547 16.1477C24.5633 15.1649 16.0679 14.6238 16.1113 14.2307C16.1548 13.8376 24.9773 13.6687 24.9985 12.5768C25.0198 11.4849 15.2002 11.2877 15.349 10.8103C15.4976 10.3329 23.2939 10.4485 23.2167 8.89802C23.1394 7.34759 11.1072 8.65379 9.83915 6.17584C8.57106 3.69804 10.0766 1.32768 8.37248 0.0948334Z" fill="#174499"/>
</svg>
