<svg width="36" height="36" fill="none" xmlns="http://www.w3.org/2000/svg"><path fill-rule="evenodd" clip-rule="evenodd" d="M17.75 21.448a4.432 4.432 0 0 0 4.438-4.438V8.136a4.432 4.432 0 0 0-4.438-4.437 4.432 4.432 0 0 0-4.438 4.438v8.875a4.432 4.432 0 0 0 4.438 4.437zM16.27 8.135c0-.813.666-1.479 1.48-1.479s1.48.666 1.48 1.48v8.875c0 .813-.666 1.479-1.48 1.479s-1.48-.666-1.48-1.48V8.136zm1.48 16.271a7.399 7.399 0 0 0 7.396-7.395h2.958c0 5.221-3.86 9.51-8.875 10.235v4.556h-2.958v-4.556c-5.014-.724-8.875-5.014-8.875-10.235h2.958a7.398 7.398 0 0 0 7.396 7.395z" fill="#36C"/></svg>