<svg width="16" height="17" viewBox="0 0 16 17" fill="none" xmlns="http://www.w3.org/2000/svg">
<path d="M16 2C16 3.10457 15.1046 4 14 4C12.8954 4 12 3.10457 12 2C12 0.89543 12.8954 0 14 0C15.1046 0 16 0.89543 16 2Z" fill="#A2A9B1" fill-opacity="0.4"/>
<path d="M4 2C4 3.10457 3.10457 4 2 4C0.89543 4 0 3.10457 0 2C0 0.89543 0.89543 0 2 0C3.10457 0 4 0.89543 4 2Z" fill="#A2A9B1" fill-opacity="0.4"/>
<path d="M10 2C10 3.10457 9.10457 4 8 4C6.89543 4 6 3.10457 6 2C6 0.89543 6.89543 0 8 0C9.10457 0 10 0.89543 10 2Z" fill="#A2A9B1" fill-opacity="0.4"/>
<path d="M16 15C16 16.1046 15.1046 17 14 17C12.8954 17 12 16.1046 12 15C12 13.8954 12.8954 13 14 13C15.1046 13 16 13.8954 16 15Z" fill="#A2A9B1" fill-opacity="0.4"/>
<path d="M4 15C4 16.1046 3.10457 17 2 17C0.89543 17 0 16.1046 0 15C0 13.8954 0.89543 13 2 13C3.10457 13 4 13.8954 4 15Z" fill="#A2A9B1" fill-opacity="0.4"/>
<path d="M10 15C10 16.1046 9.10457 17 8 17C6.89543 17 6 16.1046 6 15C6 13.8954 6.89543 13 8 13C9.10457 13 10 13.8954 10 15Z" fill="#A2A9B1" fill-opacity="0.4"/>
<path d="M16 8.40002C16 9.50459 15.1046 10.4 14 10.4C12.8954 10.4 12 9.50459 12 8.40002C12 7.29545 12.8954 6.40002 14 6.40002C15.1046 6.40002 16 7.29545 16 8.40002Z" fill="#A2A9B1" fill-opacity="0.4"/>
<path d="M4 8.40002C4 9.50459 3.10457 10.4 2 10.4C0.89543 10.4 0 9.50459 0 8.40002C0 7.29545 0.89543 6.40002 2 6.40002C3.10457 6.40002 4 7.29545 4 8.40002Z" fill="#A2A9B1" fill-opacity="0.4"/>
<path d="M10 8.40002C10 9.50459 9.10457 10.4 8 10.4C6.89543 10.4 6 9.50459 6 8.40002C6 7.29545 6.89543 6.40002 8 6.40002C9.10457 6.40002 10 7.29545 10 8.40002Z" fill="#A2A9B1" fill-opacity="0.4"/>
</svg>
