<svg xmlns="http://www.w3.org/2000/svg" width="22" height="22" fill="none"><path fill-rule="evenodd" clip-rule="evenodd" d="M17.877 11c0 .312-.027.605-.064.898l1.934 1.513c.174.137.22.385.11.587l-1.833 3.171a.454.454 0 0 1-.394.23.52.52 0 0 1-.165-.028l-2.283-.917c-.477.358-.99.67-1.55.898l-.347 2.43a.447.447 0 0 1-.45.385H9.17a.447.447 0 0 1-.45-.385l-.348-2.43a6.698 6.698 0 0 1-1.549-.898l-2.282.917a.458.458 0 0 1-.56-.202l-1.833-3.171a.462.462 0 0 1 .11-.587l1.934-1.513A7.268 7.268 0 0 1 4.127 11c0-.303.028-.605.064-.898L2.257 8.589a.452.452 0 0 1-.11-.587L3.98 4.831a.454.454 0 0 1 .395-.23c.055 0 .11.01.165.028l2.282.917c.477-.358.99-.67 1.55-.899l.348-2.429a.447.447 0 0 1 .449-.385h3.666c.23 0 .422.165.45.385l.348 2.43c.56.229 1.072.531 1.55.898l2.282-.917a.458.458 0 0 1 .56.202l1.832 3.171c.11.202.064.45-.11.587l-1.934 1.513c.037.293.064.586.064.898zm-1.833 0c0-.193-.01-.385-.046-.67l-.128-1.035.815-.642.981-.779-.641-1.109-1.165.467-.971.395-.834-.642a5.203 5.203 0 0 0-1.128-.65l-.972-.395-.146-1.036-.174-1.237H10.36l-.183 1.237-.147 1.036-.971.394a5.368 5.368 0 0 0-1.146.67l-.825.623-.953-.385-1.165-.468-.641 1.11.99.77.816.641-.129 1.036A7.01 7.01 0 0 0 5.96 11c0 .183.019.394.046.678l.129 1.036-.816.642-.99.77.641 1.109 1.165-.467.971-.395.834.642c.367.275.734.486 1.128.65l.972.395.146 1.036.174 1.237h1.284l.183-1.237.147-1.036.971-.394a5.364 5.364 0 0 0 1.146-.67l.825-.623.954.385 1.164.468.641-1.11-.99-.77-.815-.641.128-1.036a6.82 6.82 0 0 0 .046-.669zm-5.042-3.667A3.666 3.666 0 0 0 7.335 11a3.666 3.666 0 0 0 3.667 3.667A3.666 3.666 0 0 0 14.67 11a3.666 3.666 0 0 0-3.667-3.667zM9.17 11c0 1.008.825 1.833 1.833 1.833A1.839 1.839 0 0 0 12.835 11a1.839 1.839 0 0 0-1.833-1.833A1.839 1.839 0 0 0 9.17 11z" fill="#222" fill-opacity=".5" style="fill:#000;fill-opacity:.2"/></svg>