<svg xmlns="http://www.w3.org/2000/svg" viewBox="0 -256 1792 1792"><path d="M496 192q0-60-42.5-102T352 48q-60 0-102 42t-42 102q0 60 42 102t102 42q59 0 101.5-42T496 192zM928 0q0-53-37.5-90.5T800-128q-53 0-90.5 37.5T672 0q0 53 37.5 90.5T800 128q53 0 90.5-37.5T928 0zM320 640q0-66-47-113t-113-47q-66 0-113 47T0 640q0 66 47 113t113 47q66 0 113-47t47-113zm1040-448q0-46-33-79t-79-33q-46 0-79 33t-33 79q0 46 33 79t79 33q46 0 79-33t33-79zm-832 896q0-73-51.5-124.5T352 912q-73 0-124.5 51.5T176 1088q0 73 51.5 124.5T352 1264q73 0 124.5-51.5T528 1088zm464 192q0-80-56-136t-136-56q-80 0-136 56t-56 136q0 80 56 136t136 56q80 0 136-56t56-136zm544-640q0-40-28-68t-68-28q-40 0-68 28t-28 68q0 40 28 68t68 28q40 0 68-28t28-68zm-208 448q0-33-23.5-56.5T1248 1008q-33 0-56.5 23.5T1168 1088q0 33 23.5 56.5t56.5 23.5q33 0 56.5-23.5t23.5-56.5z" style="fill:currentColor" transform="matrix(1 0 0 -1 121.492 1315.797)"/></svg>