<svg width="31" height="21" viewBox="0 0 31 21" fill="none" xmlns="http://www.w3.org/2000/svg">
<path d="M0 20.0207H1.14815V0H0V20.0207ZM2.29631 20.0207H5.74077V0H2.29631V20.0207ZM6.88892 0V20.0207H10.3334V0H6.88892Z" fill="#990000"/>
<path d="M27.5556 20.0207H28.7037V0H27.5556V20.0207ZM29.8519 0V20.0207H31V0H29.8519ZM11.4819 20.0207H12.6301V0H11.4819V20.0207ZM13.7782 0V20.0207H14.9264V0H13.7782Z" fill="#339966"/>
<path d="M16.0741 20.0207H19.5186V0H16.0741V20.0207ZM20.6667 20.0207H21.8149V0H20.6667V20.0207ZM22.963 0V20.0207H26.4075V0H22.963Z" fill="#006699"/>
</svg>
