<svg width="25" height="17" fill="none" xmlns="http://www.w3.org/2000/svg"><path d="M13.774.013h3.719a.897.897 0 0 1 0 .845c-1.3.208-1.768 1.183-2.353 2.379l-1.82 3.575 3.055 6.773h.09l4.576-10.53c.572-1.391.52-2.067-1.026-2.21a.884.884 0 0 1 0-.845H24.5a.884.884 0 0 1 0 .845c-1.573.208-1.846 1.183-2.354 2.379l-5.68 13.104c-.17.39-.313.585-.573.585-.26 0-.429-.208-.546-.585l-3.223-7.449-3.536 7.449c-.143.39-.312.585-.572.585-.26 0-.403-.208-.546-.585L2.27 3.211c-.741-1.82-.78-2.21-2.145-2.34A.884.884 0 0 1 .099.013h5.083a.884.884 0 0 1 0 .845c-1.508.169-1.573.585-.962 2.054l4.433 10.647h.065l2.665-5.746-1.976-4.615C8.614 1.378 8.393 1.014 7.405.871a.897.897 0 0 1 0-.845h4.315a.884.884 0 0 1 0 .845c-.962.156-.91.585-.247 2.054l1.131 2.6.105.117 1.3-2.6c.74-1.482.832-2.054-.196-2.21a.897.897 0 0 1-.039-.819z" fill="#222"/></svg>